<mxfile host="app.diagrams.net" agent="Mozilla/5.0 (Windows NT 10.0; Win64; x64) AppleWebKit/537.36 (KHTML, like Gecko) Chrome/133.0.0.0 Safari/537.36" version="26.0.14">
  <diagram name="Page-1" id="SBId_4UvtWzDcag33xEJ">
    <mxGraphModel dx="819" dy="441" grid="1" gridSize="10" guides="1" tooltips="1" connect="1" arrows="1" fold="1" page="1" pageScale="1" pageWidth="827" pageHeight="1169" math="0" shadow="0">
      <root>
        <mxCell id="0" />
        <mxCell id="1" parent="0" />
        <mxCell id="7gsvvJtssUNx4gXBNiQV-10" style="edgeStyle=orthogonalEdgeStyle;rounded=0;orthogonalLoop=1;jettySize=auto;html=1;" edge="1" parent="1" source="7gsvvJtssUNx4gXBNiQV-2" target="7gsvvJtssUNx4gXBNiQV-40">
          <mxGeometry relative="1" as="geometry">
            <mxPoint x="130" y="290" as="targetPoint" />
          </mxGeometry>
        </mxCell>
        <mxCell id="7gsvvJtssUNx4gXBNiQV-2" value="IOT Sensor" style="sketch=0;outlineConnect=0;fontColor=#232F3E;gradientColor=none;strokeColor=#232F3E;fillColor=#ffffff;dashed=0;verticalLabelPosition=bottom;verticalAlign=top;align=center;html=1;fontSize=12;fontStyle=0;aspect=fixed;shape=mxgraph.aws4.resourceIcon;resIcon=mxgraph.aws4.sensor;" vertex="1" parent="1">
          <mxGeometry y="255" width="70" height="70" as="geometry" />
        </mxCell>
        <mxCell id="7gsvvJtssUNx4gXBNiQV-11" style="edgeStyle=orthogonalEdgeStyle;rounded=0;orthogonalLoop=1;jettySize=auto;html=1;entryX=0;entryY=0.5;entryDx=0;entryDy=0;entryPerimeter=0;" edge="1" parent="1" source="7gsvvJtssUNx4gXBNiQV-7" target="7gsvvJtssUNx4gXBNiQV-40">
          <mxGeometry relative="1" as="geometry">
            <mxPoint x="210" y="360" as="targetPoint" />
          </mxGeometry>
        </mxCell>
        <mxCell id="7gsvvJtssUNx4gXBNiQV-7" value="Radar" style="whiteSpace=wrap;html=1;aspect=fixed;" vertex="1" parent="1">
          <mxGeometry y="369.13" width="70" height="70" as="geometry" />
        </mxCell>
        <mxCell id="7gsvvJtssUNx4gXBNiQV-9" style="edgeStyle=orthogonalEdgeStyle;rounded=0;orthogonalLoop=1;jettySize=auto;html=1;entryX=0;entryY=0.5;entryDx=0;entryDy=0;entryPerimeter=0;" edge="1" parent="1" source="7gsvvJtssUNx4gXBNiQV-8" target="7gsvvJtssUNx4gXBNiQV-40">
          <mxGeometry relative="1" as="geometry">
            <mxPoint x="125" y="280" as="targetPoint" />
          </mxGeometry>
        </mxCell>
        <mxCell id="7gsvvJtssUNx4gXBNiQV-8" value="Satellite" style="whiteSpace=wrap;html=1;aspect=fixed;" vertex="1" parent="1">
          <mxGeometry y="170" width="70" height="70" as="geometry" />
        </mxCell>
        <mxCell id="7gsvvJtssUNx4gXBNiQV-16" style="edgeStyle=orthogonalEdgeStyle;rounded=0;orthogonalLoop=1;jettySize=auto;html=1;" edge="1" parent="1" source="7gsvvJtssUNx4gXBNiQV-15" target="7gsvvJtssUNx4gXBNiQV-17">
          <mxGeometry relative="1" as="geometry">
            <mxPoint x="650" y="240" as="targetPoint" />
          </mxGeometry>
        </mxCell>
        <mxCell id="7gsvvJtssUNx4gXBNiQV-18" style="edgeStyle=orthogonalEdgeStyle;rounded=0;orthogonalLoop=1;jettySize=auto;html=1;" edge="1" parent="1" source="7gsvvJtssUNx4gXBNiQV-15" target="7gsvvJtssUNx4gXBNiQV-19">
          <mxGeometry relative="1" as="geometry">
            <mxPoint x="660" y="340" as="targetPoint" />
          </mxGeometry>
        </mxCell>
        <mxCell id="7gsvvJtssUNx4gXBNiQV-15" value="Check if the water level is above flood threshold" style="rounded=1;whiteSpace=wrap;html=1;" vertex="1" parent="1">
          <mxGeometry x="470" y="260" width="120" height="60" as="geometry" />
        </mxCell>
        <mxCell id="7gsvvJtssUNx4gXBNiQV-33" style="edgeStyle=orthogonalEdgeStyle;rounded=0;orthogonalLoop=1;jettySize=auto;html=1;" edge="1" parent="1" source="7gsvvJtssUNx4gXBNiQV-17" target="7gsvvJtssUNx4gXBNiQV-15">
          <mxGeometry relative="1" as="geometry" />
        </mxCell>
        <mxCell id="7gsvvJtssUNx4gXBNiQV-17" value="Keep checking" style="rounded=1;whiteSpace=wrap;html=1;glass=0;shadow=0;" vertex="1" parent="1">
          <mxGeometry x="600" y="160" width="120" height="60" as="geometry" />
        </mxCell>
        <mxCell id="7gsvvJtssUNx4gXBNiQV-22" style="edgeStyle=orthogonalEdgeStyle;rounded=0;orthogonalLoop=1;jettySize=auto;html=1;" edge="1" parent="1" source="7gsvvJtssUNx4gXBNiQV-19" target="7gsvvJtssUNx4gXBNiQV-25">
          <mxGeometry relative="1" as="geometry">
            <mxPoint x="770" y="400" as="targetPoint" />
          </mxGeometry>
        </mxCell>
        <mxCell id="7gsvvJtssUNx4gXBNiQV-35" style="edgeStyle=orthogonalEdgeStyle;rounded=0;orthogonalLoop=1;jettySize=auto;html=1;" edge="1" parent="1" source="7gsvvJtssUNx4gXBNiQV-19" target="7gsvvJtssUNx4gXBNiQV-38">
          <mxGeometry relative="1" as="geometry">
            <mxPoint x="660" y="470" as="targetPoint" />
          </mxGeometry>
        </mxCell>
        <mxCell id="7gsvvJtssUNx4gXBNiQV-19" value="&lt;font style=&quot;font-size: 7px;&quot;&gt;If above threshold by a small amount&lt;/font&gt;&lt;div&gt;&lt;font style=&quot;font-size: 7px;&quot;&gt;identify which type of flood it is, else if above threshold by a significant amount send out a message to the public and authorities&lt;/font&gt;&lt;/div&gt;" style="rounded=1;whiteSpace=wrap;html=1;align=center;" vertex="1" parent="1">
          <mxGeometry x="600" y="360" width="120" height="80" as="geometry" />
        </mxCell>
        <mxCell id="7gsvvJtssUNx4gXBNiQV-26" style="edgeStyle=orthogonalEdgeStyle;rounded=0;orthogonalLoop=1;jettySize=auto;html=1;" edge="1" parent="1" source="7gsvvJtssUNx4gXBNiQV-25" target="7gsvvJtssUNx4gXBNiQV-27">
          <mxGeometry relative="1" as="geometry">
            <mxPoint x="870" y="400.005" as="targetPoint" />
          </mxGeometry>
        </mxCell>
        <mxCell id="7gsvvJtssUNx4gXBNiQV-25" value="AWS SNS" style="outlineConnect=0;dashed=0;verticalLabelPosition=bottom;verticalAlign=top;align=center;html=1;shape=mxgraph.aws3.sns;fillColor=#D9A741;gradientColor=none;" vertex="1" parent="1">
          <mxGeometry x="810" y="370.88" width="58.25" height="58.25" as="geometry" />
        </mxCell>
        <mxCell id="7gsvvJtssUNx4gXBNiQV-39" style="edgeStyle=orthogonalEdgeStyle;rounded=0;orthogonalLoop=1;jettySize=auto;html=1;" edge="1" parent="1" source="7gsvvJtssUNx4gXBNiQV-27">
          <mxGeometry relative="1" as="geometry">
            <mxPoint x="1110" y="400" as="targetPoint" />
          </mxGeometry>
        </mxCell>
        <mxCell id="7gsvvJtssUNx4gXBNiQV-27" value="Send out an evacuation warning to the public and notify authorities" style="rounded=1;whiteSpace=wrap;html=1;" vertex="1" parent="1">
          <mxGeometry x="940" y="369.13" width="110" height="60.87" as="geometry" />
        </mxCell>
        <mxCell id="7gsvvJtssUNx4gXBNiQV-29" value="if&amp;nbsp;significantly above threshold" style="text;html=1;align=center;verticalAlign=middle;whiteSpace=wrap;rounded=0;" vertex="1" parent="1">
          <mxGeometry x="750" y="419.13" width="26" height="10" as="geometry" />
        </mxCell>
        <mxCell id="7gsvvJtssUNx4gXBNiQV-32" value="If not above threshold" style="text;html=1;align=center;verticalAlign=middle;whiteSpace=wrap;rounded=0;" vertex="1" parent="1">
          <mxGeometry x="660" y="230" width="60" height="30" as="geometry" />
        </mxCell>
        <mxCell id="7gsvvJtssUNx4gXBNiQV-34" value="If above threshold" style="text;html=1;align=center;verticalAlign=middle;whiteSpace=wrap;rounded=0;" vertex="1" parent="1">
          <mxGeometry x="660" y="310" width="60" height="30" as="geometry" />
        </mxCell>
        <mxCell id="7gsvvJtssUNx4gXBNiQV-38" value="Flood classification" style="rounded=1;whiteSpace=wrap;html=1;" vertex="1" parent="1">
          <mxGeometry x="600" y="470" width="120" height="60" as="geometry" />
        </mxCell>
        <mxCell id="7gsvvJtssUNx4gXBNiQV-41" style="edgeStyle=orthogonalEdgeStyle;rounded=0;orthogonalLoop=1;jettySize=auto;html=1;" edge="1" parent="1" source="7gsvvJtssUNx4gXBNiQV-40" target="7gsvvJtssUNx4gXBNiQV-42">
          <mxGeometry relative="1" as="geometry">
            <mxPoint x="240" y="290" as="targetPoint" />
          </mxGeometry>
        </mxCell>
        <mxCell id="7gsvvJtssUNx4gXBNiQV-40" value="Amazon IoT Core" style="sketch=0;outlineConnect=0;fontColor=#232F3E;gradientColor=none;strokeColor=#ffffff;fillColor=#232F3E;dashed=0;verticalLabelPosition=middle;verticalAlign=bottom;align=center;html=1;whiteSpace=wrap;fontSize=10;fontStyle=1;spacing=3;shape=mxgraph.aws4.productIcon;prIcon=mxgraph.aws4.iot_core;" vertex="1" parent="1">
          <mxGeometry x="130" y="235" width="80" height="110" as="geometry" />
        </mxCell>
        <mxCell id="7gsvvJtssUNx4gXBNiQV-44" style="edgeStyle=orthogonalEdgeStyle;rounded=0;orthogonalLoop=1;jettySize=auto;html=1;entryX=0;entryY=0.5;entryDx=0;entryDy=0;" edge="1" parent="1" source="7gsvvJtssUNx4gXBNiQV-42" target="7gsvvJtssUNx4gXBNiQV-15">
          <mxGeometry relative="1" as="geometry" />
        </mxCell>
        <mxCell id="7gsvvJtssUNx4gXBNiQV-42" value="Collect the water level data using the AWS IoT Core" style="rounded=1;whiteSpace=wrap;html=1;" vertex="1" parent="1">
          <mxGeometry x="270" y="260" width="120" height="60" as="geometry" />
        </mxCell>
      </root>
    </mxGraphModel>
  </diagram>
</mxfile>
